<svg id="Layer_1" data-name="Layer 1" xmlns="http://www.w3.org/2000/svg" xmlns:xlink="http://www.w3.org/1999/xlink" viewBox="0 0 2435.22 360.49"><defs><style>.cls-1{fill:#97c5e5;}.cls-2{fill:#3a5872;}.cls-3{fill:#3c8ccb;}.cls-4{fill:#7e858f;}.cls-5{fill:url(#linear-gradient);}.cls-6{fill:#92c3e9;}.cls-7{fill:#99c4e7;opacity:0.63;}.cls-8{fill:#3f5a77;}.cls-9{fill:#d5e8f5;}.cls-10{fill:url(#linear-gradient-2);}</style><linearGradient id="linear-gradient" x1="2161.47" y1="136.09" x2="2456.93" y2="136.09" gradientUnits="userSpaceOnUse"><stop offset="0.04" stop-color="#fff"/><stop offset="0.89" stop-color="#959293"/><stop offset="1" stop-color="#646464"/></linearGradient><linearGradient id="linear-gradient-2" x1="1957.81" y1="891.13" x2="2082.99" y2="891.13" gradientTransform="translate(161.75 832.17) rotate(-41.13)" xlink:href="#linear-gradient"/></defs><title>Cyber Skyline Logo Horizontal Vector</title><path class="cls-1" d="M2319.14,322.73l-5.49-21.3a102.49,102.49,0,0,0-12.47-200.85l2.8-21.82c61.84,7.94,108.47,61,108.47,123.44A124.39,124.39,0,0,1,2319.14,322.73Z" transform="translate(-30.26 -24.25)"/><path class="cls-2" d="M2288,340c-4.41,0-8.87-.21-13.24-.63l2.09-21.9c3.68.35,7.43.53,11.15.53a116.15,116.15,0,0,0,111.52-84.51l21.19,5.93A138.23,138.23,0,0,1,2288,340Z" transform="translate(-30.26 -24.25)"/><path class="cls-3" d="M2323.64,335.12a138.11,138.11,0,0,1-93.59-8.09" transform="translate(-30.26 -24.25)"/><path class="cls-3" d="M2288,350.79A147.27,147.27,0,0,1,2225.41,337l9.27-19.95A125.47,125.47,0,0,0,2288,328.79a127.28,127.28,0,0,0,32.81-4.29l5.69,21.25A149.18,149.18,0,0,1,2288,350.79Z" transform="translate(-30.26 -24.25)"/><path class="cls-3" d="M2414.68,286.56l-18.33-12.17a130.2,130.2,0,0,0-56.3-191.09l8.83-20.15a152.2,152.2,0,0,1,65.8,223.41Z" transform="translate(-30.26 -24.25)"/><path class="cls-4" d="M2361.43,113A115.67,115.67,0,0,0,2288,86.66a114.47,114.47,0,0,0-70,23.61l-13.34-17.49A136.29,136.29,0,0,1,2288,64.66,137.81,137.81,0,0,1,2375.43,96Z" transform="translate(-30.26 -24.25)"/><path class="cls-5" d="M2452.9,239.06l-23.43-5.21a146.36,146.36,0,0,0,3.46-31.65c0-80-65.09-145.08-145.09-145.08a145.26,145.26,0,0,0-108.44,48.69l-17.93-16a169.29,169.29,0,0,1,126.37-56.74c93.24,0,169.09,75.85,169.09,169.08A170.39,170.39,0,0,1,2452.9,239.06Z" transform="translate(-30.26 -24.25)"/><path class="cls-6" d="M2138.44,160.56l-21.32-5.43A174.8,174.8,0,0,1,2178.73,61a172.14,172.14,0,0,1,106.94-36.79h1.46a175,175,0,0,1,41,5.21l-5.35,21.34A153,153,0,0,0,2287,46.26h-1.24A151.62,151.62,0,0,0,2138.44,160.56Z" transform="translate(-30.26 -24.25)"/><path class="cls-7" d="M2338.18,341.79l-6.09-16.94A130.53,130.53,0,0,0,2389.42,284l14,11.31A148.53,148.53,0,0,1,2338.18,341.79Z" transform="translate(-30.26 -24.25)"/><path class="cls-7" d="M2160.34,175.94l-17.63-3.61A148.44,148.44,0,0,1,2309.89,55.52l-2.63,17.8A131.79,131.79,0,0,0,2288,71.91C2226.36,71.91,2172.68,115.66,2160.34,175.94Z" transform="translate(-30.26 -24.25)"/><path class="cls-8" d="M2287.84,379.37v-22c85.82,0,155.63-69.82,155.63-155.63h22C2465.47,299.68,2385.79,379.37,2287.84,379.37Z" transform="translate(-30.26 -24.25)"/><path class="cls-9" d="M2434.42,149.35a152.79,152.79,0,0,0-60.69-76.73l11.92-18.49A174.77,174.77,0,0,1,2455.14,142Z" transform="translate(-30.26 -24.25)"/><path class="cls-1" d="M2324.43,231l-6.59-4.52a44.15,44.15,0,0,0-61-61.63l-4.45-6.65a52.14,52.14,0,0,1,72,72.8Z" transform="translate(-30.26 -24.25)"/><path class="cls-3" d="M2336.83,194.28a55.61,55.61,0,0,0-13.3-29.34,56.17,56.17,0,0,0-52.18-18.21l-1.43-7.88a64.22,64.22,0,0,1,59.63,20.82,63.57,63.57,0,0,1,15.21,33.56Z" transform="translate(-30.26 -24.25)"/><path class="cls-10" d="M2219.72,201l-10-.09a71.66,71.66,0,0,1,134.58-33.59l-8.78,4.78a61.65,61.65,0,0,0-115.8,28.9Z" transform="translate(-30.26 -24.25)"/><path class="cls-7" d="M2226.48,232.62a63.15,63.15,0,0,1,20.9-84.22l4.32,6.73a54.35,54.35,0,0,0-6.53,4.91,55.26,55.26,0,0,0-11.73,68.63Z" transform="translate(-30.26 -24.25)"/><path class="cls-9" d="M2314,143.49a64.44,64.44,0,0,0-40.59-7.54l-1.45-9.9a74.54,74.54,0,0,1,46.92,8.71Z" transform="translate(-30.26 -24.25)"/><path class="cls-1" d="M2281.24,254.42a53.12,53.12,0,0,1-43.94-83.12l8.25,5.65a43.14,43.14,0,0,0,59.56,60.23l5.56,8.31A52.8,52.8,0,0,1,2281.24,254.42Z" transform="translate(-30.26 -24.25)"/><path class="cls-2" d="M2228.06,226.59A59,59,0,0,1,2242.49,157c1.42-1.24,2.91-2.43,4.43-3.52l5.83,8.13c-1.26.9-2.5,1.89-3.68,2.92a48.93,48.93,0,0,0-12,57.72Z" transform="translate(-30.26 -24.25)"/><path class="cls-3" d="M2232.68,168.78a58.67,58.67,0,0,1,32.16-23.52" transform="translate(-30.26 -24.25)"/><path class="cls-3" d="M2236.83,171.57l-8.3-5.57a63.6,63.6,0,0,1,34.92-25.55l2.79,9.61a52.89,52.89,0,0,0-20.18,11.05A53.61,53.61,0,0,0,2236.83,171.57Z" transform="translate(-30.26 -24.25)"/><path class="cls-3" d="M2281.14,266a64.89,64.89,0,0,1-64.33-56.29l9.91-1.32a54.9,54.9,0,0,0,70.88,45.08l3,9.54A65,65,0,0,1,2281.14,266Z" transform="translate(-30.26 -24.25)"/><path class="cls-4" d="M2282.85,260l-.28-10a48.77,48.77,0,0,0,30.6-12,48.25,48.25,0,0,0,15.68-26.9l9.8,2a58.19,58.19,0,0,1-18.9,32.43A58.78,58.78,0,0,1,2282.85,260Z" transform="translate(-30.26 -24.25)"/><path class="cls-6" d="M2316.66,268l-4.55-8.9A64.23,64.23,0,0,0,2340.26,173l8.93-4.52A74.23,74.23,0,0,1,2316.66,268Z" transform="translate(-30.26 -24.25)"/><path class="cls-7" d="M2219.11,203.73a62.1,62.1,0,0,1,7.78-32.62l5.24,2.91a56.18,56.18,0,0,0-7,29.48Z" transform="translate(-30.26 -24.25)"/><path class="cls-7" d="M2314.64,253.6l-3.24-5a57.39,57.39,0,0,0,6.65-5A56.26,56.26,0,0,0,2330,173.68l5.22-3a62.14,62.14,0,0,1-20.56,82.88Z" transform="translate(-30.26 -24.25)"/><path class="cls-8" d="M2224.32,251.2a75.77,75.77,0,0,1,7.23-106.79l6.58,7.53a65.76,65.76,0,0,0-6.28,92.68Z" transform="translate(-30.26 -24.25)"/><path class="cls-9" d="M2280.09,277.56a74.71,74.71,0,0,1-36.38-9.48l4.89-8.73a64.43,64.43,0,0,0,40.59,7.55l1.44,9.89A72.87,72.87,0,0,1,2280.09,277.56Z" transform="translate(-30.26 -24.25)"/><path class="cls-3" d="M163.72,384.74a133.06,133.06,0,0,1-52.07-10.54A122.3,122.3,0,0,1,89.25,362a156,156,0,0,1-20.11-16.47A129.82,129.82,0,0,1,40.8,303.34a133.86,133.86,0,0,1,0-104.13A138.46,138.46,0,0,1,69.14,156.7a138.46,138.46,0,0,1,42.51-28.34,133,133,0,0,1,103.81,0A129,129,0,0,1,258,156.7l-39.54,39.87a73.55,73.55,0,0,0-24.88-17,77.71,77.71,0,0,0-29.83-5.77,74.74,74.74,0,0,0-30.15,6.1,78.63,78.63,0,0,0-41.19,41.19,77.19,77.19,0,0,0,0,60.15,78.19,78.19,0,0,0,41.19,41.35,74.57,74.57,0,0,0,30.15,6.1A77.52,77.52,0,0,0,193.55,323a73.26,73.26,0,0,0,24.88-17L258,345.53a126.57,126.57,0,0,1-42.51,28.67A132.26,132.26,0,0,1,163.72,384.74Z" transform="translate(-30.26 -24.25)"/><path class="cls-3" d="M444.92,200.5h25.14l-78,111.18v67.13H352.88V311.68L275.14,200.5h47.75l49.59,70.81,49.6-70.81Z" transform="translate(-30.26 -24.25)"/><path class="cls-3" d="M562.79,378.81H477.9V200.73h74.28a81,81,0,0,1,16.49,1.61,58.57,58.57,0,0,1,14.19,4.84,46.89,46.89,0,0,1,19.38,16.61q8.29,12.47,8.3,29.53,0,15.23-6.92,26.53a48.7,48.7,0,0,1,15.11,18.22,54.32,54.32,0,0,1,5.19,23.76,56.44,56.44,0,0,1-4.84,23.3,53.54,53.54,0,0,1-13.84,18.69A56.75,56.75,0,0,1,586.09,375,69.78,69.78,0,0,1,562.79,378.81ZM517.12,266h39a25.74,25.74,0,0,0,4.15-.58,18.91,18.91,0,0,0,5.54-2,12,12,0,0,0,4-3.46q1.5-2.07,1.5-6.69a28.4,28.4,0,0,0-.35-4.15,8.78,8.78,0,0,0-2.08-4.38,12.58,12.58,0,0,0-5.65-3.46q-3.91-1.4-11.07-1.39H517.12Zm0,73.58h45.67a45.45,45.45,0,0,0,5-.46,25.78,25.78,0,0,0,7.38-2.19,18.24,18.24,0,0,0,6.69-5.3q2.88-3.58,2.89-9.81c0-3.23-.55-5.65-1.62-7.26a11.89,11.89,0,0,0-3.46-3.58q-7.61-5.76-23.07-5.77H517.12Z" transform="translate(-30.26 -24.25)"/><path class="cls-3" d="M678.59,239.71v26.53h72.2v39.21h-72.2v34.14h74.74v39.22h-114V200.5h114v39.21Z" transform="translate(-30.26 -24.25)"/><path class="cls-3" d="M915.73,378.81h-48L835,332h-20.3v46.83H775.47V200.5h65.75A95.52,95.52,0,0,1,869,204.3a69.66,69.66,0,0,1,22.26,11.19,70.44,70.44,0,0,1,9.58,9.57,51.54,51.54,0,0,1,7,11.19,63.4,63.4,0,0,1,6,27.45,71.46,71.46,0,0,1-5.07,26.76,61.87,61.87,0,0,1-14.54,21.68,60.18,60.18,0,0,1-16.84,12Zm-101-86h26.76q16.38.47,25.37-8.54,7.84-7.85,7.85-20.53,0-24-33.45-24H814.69Z" transform="translate(-30.26 -24.25)"/><path class="cls-3" d="M1125.68,382.1h-4.62a157.81,157.81,0,0,1-30.48-3.78,156.14,156.14,0,0,1-29.17-9.4,121.62,121.62,0,0,1-26-16.14,74.08,74.08,0,0,1-17.46-20.11L1065.7,305a27.35,27.35,0,0,0,7.74,7.91,69.88,69.88,0,0,0,12.86,7.25,85.21,85.21,0,0,0,16.31,5.27,83.14,83.14,0,0,0,18.12,2h1.65a69.57,69.57,0,0,0,18.29-1.32,87.4,87.4,0,0,0,21.26-6.92q18.1-8.24,19.77-22.08A12.55,12.55,0,0,0,1181,291a13,13,0,0,0-2.64-3.79q-5.93-6.6-18.12-9.89-15.49-4.6-35.59-4.61-5.61,0-16-.66a153.23,153.23,0,0,1-22.57-3.3Q1055.49,261.5,1038,244q-19.12-19.77-17.14-48.77v-.33a76.78,76.78,0,0,1,6.43-26A63.55,63.55,0,0,1,1043,147.47q16.82-16.14,43.17-22.74a143.23,143.23,0,0,1,35.43-4.28,144.73,144.73,0,0,1,36.41,4.61q20.43,5,35.43,14.5T1217,161.64l-46.8,29.66q-2-3-8.23-6.92t-17.47-6.59a102.14,102.14,0,0,0-22.74-2.8,76.41,76.41,0,0,0-21.42,2.47q-8.57,2-13.35,4.94a28,28,0,0,0-7.25,6.1,15.78,15.78,0,0,0-3.13,5.93,20.3,20.3,0,0,0-.66,4.12,13.72,13.72,0,0,0,.83,5.44,9.28,9.28,0,0,0,1.81,2.8q5,4.94,17.8,8.07a119.52,119.52,0,0,0,28.34,3.13q31.63,0,55.85,8.41t39,24.22a69.18,69.18,0,0,1,14.17,23.56,61.8,61.8,0,0,1,3,27.85,73.54,73.54,0,0,1-14.83,38.39q-12.86,17-35.26,27.84a146.87,146.87,0,0,1-61,13.84Z" transform="translate(-30.26 -24.25)"/><path class="cls-3" d="M1361.23,276.62l101,102.19h-55.13L1331.24,302l-21.69,18v58.82h-39.21V200.5h39.21v68.28l81-68.28h60.9Z" transform="translate(-30.26 -24.25)"/><path class="cls-3" d="M1623.05,200.5h25.14l-78,111.18v67.13H1531V311.68L1453.27,200.5H1501l49.59,70.81,49.6-70.81Z" transform="translate(-30.26 -24.25)"/><path class="cls-3" d="M1656,378.81V200.5h39.22V339.59h75.89v39.22Z" transform="translate(-30.26 -24.25)"/><path class="cls-3" d="M1783.13,378.81V200.5h39.22V378.81Z" transform="translate(-30.26 -24.25)"/><path class="cls-3" d="M2018.42,200.5V378.81h-42.21l-91.58-119.26V378.81h-39.22V200.5h43.37l90.43,117.87V200.5h39.21Z" transform="translate(-30.26 -24.25)"/><path class="cls-3" d="M2081.39,239.71v26.53h72.21v39.21h-72.21v34.14h74.74v39.22h-114V200.5h114v39.21Z" transform="translate(-30.26 -24.25)"/></svg>
